<svg width="50" height="50" viewBox="0 0 50 50" fill="none" xmlns="http://www.w3.org/2000/svg">
<path fill-rule="evenodd" clip-rule="evenodd" d="M12.7497 32.9998C12.8661 32.8445 13.0171 32.7185 13.1906 32.6317C13.3642 32.5449 13.5556 32.4998 13.7497 32.4998H19.9998C20.3314 32.4998 20.6493 32.6315 20.8837 32.8659C21.1182 33.1003 21.2499 33.4183 21.2499 33.7498C21.2499 34.0813 21.1182 34.3993 20.8837 34.6337C20.6493 34.8681 20.3314 34.9998 19.9998 34.9998H14.3747L8.74955 42.5H41.2504L35.6253 34.9998H30.0001C29.6686 34.9998 29.3506 34.8681 29.1162 34.6337C28.8818 34.3993 28.7501 34.0813 28.7501 33.7498C28.7501 33.4183 28.8818 33.1003 29.1162 32.8659C29.3506 32.6315 29.6686 32.4998 30.0001 32.4998H36.2503C36.4443 32.4998 36.6357 32.5449 36.8093 32.6317C36.9829 32.7185 37.1339 32.8445 37.2503 32.9998L44.7505 43C44.8898 43.1857 44.9746 43.4066 44.9954 43.6378C45.0163 43.869 44.9723 44.1014 44.8685 44.3091C44.7647 44.5167 44.6051 44.6913 44.4076 44.8134C44.2102 44.9354 43.9826 45.0001 43.7505 45.0001H6.24948C6.01734 45.0001 5.78978 44.9354 5.5923 44.8134C5.39483 44.6913 5.23524 44.5167 5.13142 44.3091C5.0276 44.1014 4.98365 43.869 5.0045 43.6378C5.02535 43.4066 5.11017 43.1857 5.24946 43L12.7497 32.9998Z" fill="white"/>
<path fill-rule="evenodd" clip-rule="evenodd" d="M25 7.49902C24.015 7.49902 23.0397 7.69301 22.1298 8.06994C21.2198 8.44686 20.393 8.99932 19.6965 9.69577C19.0001 10.3922 18.4476 11.219 18.0707 12.129C17.6938 13.039 17.4998 14.0143 17.4998 14.9992C17.4998 15.9842 17.6938 16.9594 18.0707 17.8694C18.4476 18.7794 19.0001 19.6062 19.6965 20.3027C20.393 20.9991 21.2198 21.5516 22.1298 21.9285C23.0397 22.3054 24.015 22.4994 25 22.4994C26.9891 22.4994 28.8968 21.7092 30.3034 20.3027C31.71 18.8961 32.5002 16.9884 32.5002 14.9992C32.5002 13.01 31.71 11.1023 30.3034 9.69577C28.8968 8.28921 26.9891 7.49902 25 7.49902V7.49902ZM14.9997 14.9992C14.9999 13.0747 15.5554 11.1912 16.5995 9.57455C17.6436 7.95793 19.132 6.67692 20.8861 5.88524C22.6402 5.09356 24.5855 4.82483 26.4885 5.1113C28.3916 5.39776 30.1716 6.22726 31.6149 7.50026C33.0582 8.77325 34.1035 10.4357 34.6254 12.288C35.1474 14.1404 35.1237 16.104 34.5573 17.9433C33.9909 19.7825 32.9059 21.4193 31.4323 22.6571C29.9588 23.895 28.1594 24.6814 26.25 24.922V38.7498C26.25 39.0814 26.1183 39.3993 25.8839 39.6337C25.6494 39.8682 25.3315 39.9999 25 39.9999C24.6684 39.9999 24.3505 39.8682 24.1161 39.6337C23.8816 39.3993 23.7499 39.0814 23.7499 38.7498V24.9245C21.3323 24.6199 19.109 23.443 17.4978 21.615C15.8866 19.7869 14.9983 17.4335 14.9997 14.9967V14.9992Z" fill="white"/>
</svg>
