<svg width="50" height="50" viewBox="0 0 50 50" fill="none" xmlns="http://www.w3.org/2000/svg">
<path d="M25.178 18.3333C24.2789 18.3333 23.4167 18.6845 22.781 19.3096C22.1453 19.9348 21.7881 20.7826 21.7881 21.6667V41.6667C21.7881 42.5507 22.1453 43.3986 22.781 44.0237C23.4167 44.6488 24.2789 45 25.178 45C26.077 45 26.9392 44.6488 27.5749 44.0237C28.2107 43.3986 28.5678 42.5507 28.5678 41.6667V21.6667C28.5678 20.7826 28.2107 19.9348 27.5749 19.3096C26.9392 18.6845 26.077 18.3333 25.178 18.3333ZM25.178 5C24.3399 5 23.5207 5.24437 22.8239 5.70221C22.127 6.16005 21.5839 6.81079 21.2632 7.57215C20.9425 8.33351 20.8586 9.17129 21.0221 9.97954C21.1856 10.7878 21.5892 11.5302 22.1817 12.1129C22.7743 12.6957 23.5294 13.0925 24.3513 13.2533C25.1733 13.414 26.0252 13.3315 26.7995 13.0162C27.5738 12.7008 28.2355 12.1667 28.7011 11.4815C29.1667 10.7963 29.4153 9.99076 29.4153 9.16667C29.4153 8.0616 28.9688 7.00179 28.1742 6.22039C27.3795 5.43899 26.3018 5 25.178 5V5Z" fill="white"/>
</svg>
