<svg width="50" height="50" viewBox="0 0 50 50" fill="none" xmlns="http://www.w3.org/2000/svg">
<path d="M29.6955 24.9972L44.015 10.7089C44.642 10.0818 44.9943 9.23116 44.9943 8.34422C44.9943 7.45728 44.642 6.60666 44.015 5.9795C43.3879 5.35234 42.5374 5 41.6506 5C40.7638 5 39.9133 5.35234 39.2862 5.9795L25 20.301L10.7138 5.9795C10.0867 5.35234 9.23624 5 8.34942 5C7.46261 5 6.61212 5.35234 5.98504 5.9795C5.35797 6.60666 5.00568 7.45728 5.00568 8.34422C5.00568 9.23116 5.35797 10.0818 5.98504 10.7089L20.3045 24.9972L5.98504 39.2854C5.67292 39.595 5.42518 39.9634 5.25611 40.3692C5.08704 40.7751 5 41.2104 5 41.6501C5 42.0898 5.08704 42.5251 5.25611 42.931C5.42518 43.3368 5.67292 43.7052 5.98504 44.0148C6.29462 44.327 6.66293 44.5748 7.06874 44.7439C7.47454 44.9129 7.90981 45 8.34942 45C8.78904 45 9.2243 44.9129 9.63011 44.7439C10.0359 44.5748 10.4042 44.327 10.7138 44.0148L25 29.6933L39.2862 44.0148C39.5958 44.327 39.9641 44.5748 40.3699 44.7439C40.7757 44.9129 41.211 45 41.6506 45C42.0902 45 42.5255 44.9129 42.9313 44.7439C43.3371 44.5748 43.7054 44.327 44.015 44.0148C44.3271 43.7052 44.5748 43.3368 44.7439 42.931C44.913 42.5251 45 42.0898 45 41.6501C45 41.2104 44.913 40.7751 44.7439 40.3692C44.5748 39.9634 44.3271 39.595 44.015 39.2854L29.6955 24.9972Z" fill="white"/>
</svg>
