<svg width="50" height="50" viewBox="0 0 50 50" fill="none" xmlns="http://www.w3.org/2000/svg">
<path d="M34.3521 29.894C33.846 29.614 31.3248 28.2841 30.8558 28.1041C30.3868 27.9141 30.0432 27.8241 29.7043 28.3841C29.3607 28.939 28.3856 30.1739 28.0792 30.5489C27.782 30.9189 27.4802 30.9639 26.9741 30.6889C23.9653 29.069 21.992 27.7991 20.0093 24.1344C19.4846 23.1594 20.534 23.2294 21.5137 21.1246C21.6809 20.7546 21.5973 20.4396 21.4673 20.1596C21.3373 19.8797 20.3158 17.1698 19.8886 16.0649C19.4753 14.99 19.0482 15.14 18.7371 15.12C18.4399 15.1 18.101 15.1 17.7574 15.1C17.4138 15.1 16.8612 15.24 16.3923 15.7849C15.9233 16.3399 14.6 17.6748 14.6 20.3846C14.6 23.0944 16.4341 25.7193 16.6848 26.0892C16.9448 26.4592 20.2926 32.0188 25.4326 34.4137C28.6828 35.9236 29.955 36.0535 31.5801 35.7936C32.5691 35.6336 34.6075 34.4637 35.03 33.1687C35.4525 31.8788 35.4525 30.7739 35.3272 30.5439C35.2018 30.2989 34.8582 30.1589 34.3521 29.894Z" fill="white"/>
<path d="M43.4462 17.25C42.4373 14.8527 40.9909 12.7009 39.1471 10.8527C37.3034 9.00893 35.1517 7.55804 32.7499 6.55357C30.2946 5.52232 27.6875 5 25 5H24.9107C22.2054 5.01339 19.5849 5.54911 17.1206 6.60268C14.7412 7.62054 12.6073 9.06696 10.7814 10.9107C8.95556 12.7545 7.52254 14.8973 6.53148 17.2857C5.50471 19.7589 4.98686 22.3884 5.00025 25.0937C5.01365 28.192 5.75471 31.2679 7.14308 34.0179V40.8036C7.14308 41.9375 8.06272 42.8571 9.19663 42.8571H15.9867C18.7367 44.2455 21.8125 44.9866 24.9107 45H25.0045C27.6785 45 30.2723 44.4821 32.7142 43.4688C35.1026 42.4732 37.2498 41.0446 39.0891 39.2187C40.9328 37.3929 42.3837 35.2589 43.3971 32.8795C44.4506 30.4152 44.9864 27.7946 44.9998 25.0893C45.0131 22.3705 44.4864 19.7321 43.4462 17.25ZM36.7007 36.8036C33.5713 39.9018 29.4196 41.6071 25 41.6071H24.9241C22.2322 41.5938 19.5581 40.9241 17.1965 39.6652L16.8215 39.4643H10.5359V33.1786L10.335 32.8036C9.0761 30.442 8.40646 27.7679 8.39307 25.0759C8.37521 20.625 10.0761 16.4464 13.1966 13.2991C16.3126 10.1518 20.4777 8.41071 24.9286 8.39286H25.0045C27.2366 8.39286 29.4017 8.82589 31.4419 9.68304C33.4329 10.5179 35.2186 11.7187 36.7543 13.2545C38.2856 14.7857 39.4909 16.5759 40.3257 18.567C41.1918 20.6295 41.6248 22.817 41.6159 25.0759C41.5891 29.5223 39.8436 33.6875 36.7007 36.8036Z" fill="white"/>
</svg>
